# xmcd
#
# Track frame offsets:
#	150
#	13682
#	27600
#	43732
#	55880
#	70997
#	84100
#	99607
#	115440
#	127252
#	145545
#	162775
#	178902
#	195290
#	213940
#
# Disc length: 3086 seconds
# Revision: 1
# Processed by: cddbd v1.5.2PL0 Copyright (c) Steve Scherf et al.
# Submitted via: dBpowerAMP V12.0
#
DISCID=d20c0c0f
DTITLE=Bill Arwood - Collector's Series Vol 1
DYEAR=1995
DGENRE=Country
TTITLE0=Even The Blues Let Me Down
TTITLE1=Redneck Saturday Night
TTITLE2=Time On My Hands
TTITLE3=Danged Ole Disco Bar
TTITLE4=Cheatin' Side Tonight
TTITLE5=Even The Blues Let Me Down
TTITLE6=Dreaming
TTITLE7=A Woman Like Her
TTITLE8=Chart Action Required
TTITLE9=Band Of Gold
TTITLE10=She's Just A Woman
TTITLE11=Long Long Time Ago
TTITLE12=It Never Hurt This Bad Before
TTITLE13=Walk Away
TTITLE14=Family Reunion
EXTD=
EXTT0=
EXTT1=
EXTT2=
EXTT3=
EXTT4=
EXTT5=
EXTT6=
EXTT7=
EXTT8=
EXTT9=
EXTT10=
EXTT11=
EXTT12=
EXTT13=
EXTT14=
PLAYORDER=
